<?xml version="1.0" encoding="utf-8"?>
<!-- Generator: Adobe Illustrator 22.0.1, SVG Export Plug-In . SVG Version: 6.00 Build 0)  -->
<svg version="1.1" id="Layer_1" xmlns="http://www.w3.org/2000/svg" xmlns:xlink="http://www.w3.org/1999/xlink" x="0px" y="0px"
	 viewBox="0 0 339.4 295.3" style="enable-background:new 0 0 339.4 295.3;" xml:space="preserve">
<style type="text/css">
	.st0{fill:#50AF95;}
	.st1{fill:#FFFFFF;}
</style>
<title>tether-usdt-logo</title>
<path class="st0" d="M62.2,1.5l-61.9,130c-0.5,1-0.3,2.2,0.5,2.9l167.1,160.2c1,0.9,2.5,0.9,3.5,0l167.2-160.2
	c0.8-0.8,1-1.9,0.5-2.9l-61.9-130C276.9,0.6,276,0,275,0H64.4C63.5,0,62.6,0.6,62.2,1.5C62.1,1.5,62.1,1.5,62.2,1.5z"/>
<path class="st1" d="M191.2,144.8L191.2,144.8c-1.2,0.1-7.4,0.5-21.2,0.5c-11,0-18.8-0.3-21.6-0.5l0,0c-42.5-1.9-74.2-9.3-74.2-18.1
	s31.7-16.2,74.2-18.2v28.9c2.8,0.2,10.7,0.7,21.7,0.7c13.2,0,19.8-0.6,21-0.7v-28.9c42.4,1.9,74.1,9.3,74.1,18.1
	S233.6,142.9,191.2,144.8L191.2,144.8L191.2,144.8z M191.2,105.6V79.7h59.2V40.2H89.2v39.5h59.2v25.9c-48.1,2.2-84.3,11.7-84.3,23.2
	s36.2,20.9,84.3,23.2v82.9h42.8v-82.9c48-2.2,84.1-11.7,84.1-23.1S239.2,107.8,191.2,105.6L191.2,105.6L191.2,105.6z M191.2,105.6
	L191.2,105.6z"/>
</svg>
